<svg xmlns="http://www.w3.org/2000/svg" width="22.853" height="21.722" viewBox="0 0 22.853 21.722"><defs><style>.a{fill:#f4f5f7;}</style></defs><g transform="translate(0 -12.676)"><g transform="translate(0 12.675)"><path class="a" d="M22.469,22.326,12.216,12.983a1.167,1.167,0,0,0-1.579,0L.384,22.326a1.172,1.172,0,0,0,.789,2.038H2.811v9.361a.672.672,0,0,0,.672.672H9.1a.672.672,0,0,0,.672-.672V28.042h3.3v5.684a.672.672,0,0,0,.672.672h5.62a.672.672,0,0,0,.672-.672V24.364H21.68a1.172,1.172,0,0,0,.789-2.038Z" transform="translate(0 -12.676)"/></g><g transform="translate(15.353 14.017)"><g transform="translate(0 0)"><path class="a" d="M348.486,42.73h-4.513l5.186,4.715V43.4A.672.672,0,0,0,348.486,42.73Z" transform="translate(-343.973 -42.73)"/></g></g></g></svg>